<svg width="202" height="68" viewBox="0 0 202 68" fill="none" xmlns="http://www.w3.org/2000/svg">
<path d="M134.608 43.1538L128.164 35.7288V43.1538H123.637V27.8591H127.941L134.385 35.3953V27.8591H138.912V43.1538H134.608Z" fill="white"/>
<path d="M142.881 27.8591H147.809V39.2412H155.681V43.1538H142.881V27.8591Z" fill="white"/>
<path d="M158.646 43.1538V27.8591H163.574V43.1538H158.646Z" fill="white"/>
<path d="M178.73 43.1538L172.286 35.7288V43.1538H167.759V27.8591H172.063L178.507 35.3953V27.8591H183.034V43.1538H178.73Z" fill="white"/>
<path d="M187.003 27.8591H200.271V31.5271H191.931V33.6391H199.067V37.1515H191.931V39.4858H200.427V43.1538H187.003V27.8591Z" fill="white"/>
<path d="M119.364 34.6538C119.364 44.4038 111.436 52.3077 101.656 52.3077C91.8761 52.3077 83.9481 44.4038 83.9481 34.6538C83.9481 24.9039 91.8761 17 101.656 17C111.436 17 119.364 24.9039 119.364 34.6538Z" fill="#0194FF"/>
<path d="M111.775 34.6538C111.775 40.2252 107.244 44.7418 101.656 44.7418C96.0674 44.7418 91.5371 40.2252 91.5371 34.6538C91.5371 29.0824 96.0674 24.5659 101.656 24.5659C107.244 24.5659 111.775 29.0824 111.775 34.6538Z" fill="#FFE600"/>
<path fill-rule="evenodd" clip-rule="evenodd" d="M101.656 43.0604C106.313 43.0604 110.088 39.2967 110.088 34.6538C110.088 30.011 106.313 26.2473 101.656 26.2473C96.9988 26.2473 93.2236 30.011 93.2236 34.6538C93.2236 39.2967 96.9988 43.0604 101.656 43.0604ZM101.656 44.7418C107.244 44.7418 111.775 40.2252 111.775 34.6538C111.775 29.0824 107.244 24.5659 101.656 24.5659C96.0674 24.5659 91.5371 29.0824 91.5371 34.6538C91.5371 40.2252 96.0674 44.7418 101.656 44.7418Z" fill="#00317B"/>
<path d="M8.96409 27.5923C11.2386 27.5923 13.0373 28.1629 14.3604 29.3041C15.6834 30.4304 16.345 32.0459 16.345 34.1504H11.6399C11.6399 33.2612 11.4021 32.5572 10.9264 32.0385C10.4655 31.5198 9.804 31.2604 8.94179 31.2604C7.94578 31.2604 7.20992 31.5716 6.73422 32.1941C6.27338 32.8165 6.04296 33.6835 6.04296 34.7951V36.2179C6.04296 37.3146 6.27338 38.1816 6.73422 38.8189C7.20992 39.4413 7.93091 39.7525 8.89719 39.7525C9.8486 39.7525 10.5696 39.508 11.0602 39.0189C11.5507 38.5299 11.796 37.8407 11.796 36.9515H16.345C16.345 39.0412 15.6983 40.6418 14.405 41.7533C13.1265 42.8649 11.3129 43.4206 8.96409 43.4206C6.3477 43.4206 4.36312 42.7537 3.01033 41.4199C1.67241 40.086 1.00345 38.1149 1.00345 35.5065C1.00345 32.8981 1.67241 30.9269 3.01033 29.5931C4.36312 28.2592 6.3477 27.5923 8.96409 27.5923Z" fill="white"/>
<path d="M29.9543 43.1539L29.3076 40.9975H23.9337L23.287 43.1539H18.2475L23.8445 27.8591H29.5752L35.1722 43.1539H29.9543ZM24.9594 37.5739H28.2819L26.6764 32.1274H26.5872L24.9594 37.5739Z" fill="white"/>
<path d="M44.1434 27.5923C46.1057 27.5923 47.7186 27.9925 48.9822 28.7928C50.2458 29.5783 50.8925 30.7491 50.9222 32.3052V32.572H46.3064V32.4831C46.3064 32.0385 46.1429 31.668 45.8158 31.3715C45.4888 31.0751 44.9908 30.9269 44.3218 30.9269C43.6677 30.9269 43.1623 31.0233 42.8055 31.2159C42.4636 31.4086 42.2926 31.6457 42.2926 31.9273C42.2926 32.3275 42.5305 32.6239 43.0062 32.8165C43.4819 33.0092 44.2475 33.2093 45.303 33.4168C46.5368 33.6687 47.5477 33.9355 48.3356 34.2171C49.1383 34.4839 49.837 34.9285 50.4317 35.5509C51.0263 36.1734 51.331 37.0182 51.3459 38.0852C51.3459 39.8933 50.729 41.2346 49.4951 42.109C48.2761 42.9834 46.6409 43.4206 44.5894 43.4206C42.196 43.4206 40.3303 43.0205 38.9924 42.2202C37.6694 41.4199 37.0078 40.0045 37.0078 37.9741H41.6683C41.6683 38.7448 41.869 39.2635 42.2703 39.5302C42.6717 39.7822 43.2961 39.9082 44.1434 39.9082C44.7678 39.9082 45.2807 39.8415 45.682 39.7081C46.0983 39.5747 46.3064 39.3005 46.3064 38.8855C46.3064 38.515 46.076 38.2409 45.6151 38.063C45.1692 37.8703 44.4333 37.6703 43.4076 37.4628C42.1588 37.196 41.1257 36.9218 40.308 36.6402C39.4904 36.3438 38.7769 35.8622 38.1674 35.1952C37.5579 34.5283 37.2531 33.6243 37.2531 32.4831C37.2531 30.8084 37.8998 29.5783 39.1931 28.7928C40.5013 27.9925 42.1514 27.5923 44.1434 27.5923Z" fill="white"/>
<path d="M54.6836 43.1539V27.8591H59.6116V43.1539H54.6836Z" fill="white"/>
<path d="M74.7674 43.1539L68.3231 35.7288V43.1539H63.7964V27.8591H68.1001L74.5444 35.3953V27.8591H79.071V43.1539H74.7674Z" fill="white"/>
</svg>
